{
    "asset" : {
        "generator" : "Khronos glTF Blender I/O v1.7.33",
        "version" : "2.0"
    },
    "extensionsUsed" : [
        "KHR_lights_punctual"
    ],
    "extensionsRequired" : [
        "KHR_lights_punctual"
    ],
    "extensions" : {
        "KHR_lights_punctual" : {
            "lights" : [
                {
                    "color" : [
                        0.25207391381263733,
                        1.000376582145691,
                        0.21317347884178162
                    ],
                    "intensity" : 377.60003662109375,
                    "type" : "point",
                    "name" : "Point.001"
                },
                {
                    "color" : [
                        1.000510334968567,
                        0.6595127582550049,
                        0.25710394978523254
                    ],
                    "intensity" : 377.60003662109375,
                    "type" : "point",
                    "name" : "Point"
                }
            ]
        }
    },
    "scene" : 0,
    "scenes" : [
        {
            "name" : "Scene",
            "nodes" : [
                0,
                1,
                2,
                3,
                5,
                7
            ]
        }
    ],
    "nodes" : [
        {
            "mesh" : 0,
            "name" : "Cube"
        },
        {
            "mesh" : 1,
            "name" : "Cube.001",
            "rotation" : [
                0.7071068286895752,
                0,
                0,
                0.7071068286895752
            ],
            "translation" : [
                0,
                3.8634021282196045,
                -3.694181442260742
            ]
        },
        {
            "mesh" : 2,
            "name" : "Cube.002",
            "rotation" : [
                0.5,
                0.5,
                -0.5,
                0.4999999701976776
            ],
            "translation" : [
                3.7105789184570312,
                3.9094583988189697,
                0.013151362538337708
            ]
        },
        {
            "mesh" : 3,
            "name" : "Cube.003",
            "translation" : [
                -1.3016533851623535,
                1.0559113025665283,
                -2.6054980754852295
            ]
        },
        {
            "extensions" : {
                "KHR_lights_punctual" : {
                    "light" : 0
                }
            },
            "name" : "Lichterkette_Orientation",
            "rotation" : [
                -0.7071067690849304,
                0,
                0,
                0.7071067690849304
            ]
        },
        {
            "children" : [
                4
            ],
            "name" : "Lichterkette",
            "translation" : [
                -2.5701990127563477,
                1.3763048648834229,
                -2.0957512855529785
            ]
        },
        {
            "extensions" : {
                "KHR_lights_punctual" : {
                    "light" : 1
                }
            },
            "name" : "Schreibtischlampen_Orientation",
            "rotation" : [
                -0.7071067690849304,
                0,
                0,
                0.7071067690849304
            ]
        },
        {
            "children" : [
                6
            ],
            "name" : "Schreibtischlampen",
            "translation" : [
                2.9124999046325684,
                1.6472885608673096,
                -0.11605870723724365
            ]
        }
    ],
    "materials" : [
        {
            "doubleSided" : true,
            "name" : "Material.001",
            "pbrMetallicRoughness" : {
                "baseColorFactor" : [
                    0.31082913279533386,
                    0.2157546579837799,
                    0.10409394651651382,
                    1
                ],
                "metallicFactor" : 0.13076923787593842
            }
        }
    ],
    "meshes" : [
        {
            "name" : "Cube.004",
            "primitives" : [
                {
                    "attributes" : {
                        "POSITION" : 0,
                        "NORMAL" : 1,
                        "TEXCOORD_0" : 2
                    },
                    "indices" : 3,
                    "material" : 0
                }
            ]
        },
        {
            "name" : "Cube.001",
            "primitives" : [
                {
                    "attributes" : {
                        "POSITION" : 4,
                        "NORMAL" : 5,
                        "TEXCOORD_0" : 6
                    },
                    "indices" : 3,
                    "material" : 0
                }
            ]
        },
        {
            "name" : "Cube.002",
            "primitives" : [
                {
                    "attributes" : {
                        "POSITION" : 7,
                        "NORMAL" : 8,
                        "TEXCOORD_0" : 9
                    },
                    "indices" : 3,
                    "material" : 0
                }
            ]
        },
        {
            "name" : "Cube",
            "primitives" : [
                {
                    "attributes" : {
                        "POSITION" : 10,
                        "NORMAL" : 11,
                        "TEXCOORD_0" : 12
                    },
                    "indices" : 13,
                    "material" : 0
                }
            ]
        }
    ],
    "accessors" : [
        {
            "bufferView" : 0,
            "componentType" : 5126,
            "count" : 24,
            "max" : [
                3.810018539428711,
                0.09943985939025879,
                3.810018539428711
            ],
            "min" : [
                -3.810018539428711,
                -0.09943985939025879,
                -3.810018539428711
            ],
            "type" : "VEC3"
        },
        {
            "bufferView" : 1,
            "componentType" : 5126,
            "count" : 24,
            "type" : "VEC3"
        },
        {
            "bufferView" : 2,
            "componentType" : 5126,
            "count" : 24,
            "type" : "VEC2"
        },
        {
            "bufferView" : 3,
            "componentType" : 5123,
            "count" : 36,
            "type" : "SCALAR"
        },
        {
            "bufferView" : 4,
            "componentType" : 5126,
            "count" : 24,
            "max" : [
                3.810018539428711,
                0.09943985939025879,
                3.810018539428711
            ],
            "min" : [
                -3.810018539428711,
                -0.09943985939025879,
                -3.810018539428711
            ],
            "type" : "VEC3"
        },
        {
            "bufferView" : 5,
            "componentType" : 5126,
            "count" : 24,
            "type" : "VEC3"
        },
        {
            "bufferView" : 6,
            "componentType" : 5126,
            "count" : 24,
            "type" : "VEC2"
        },
        {
            "bufferView" : 7,
            "componentType" : 5126,
            "count" : 24,
            "max" : [
                3.810018539428711,
                0.09943985939025879,
                3.810018539428711
            ],
            "min" : [
                -3.810018539428711,
                -0.09943985939025879,
                -3.810018539428711
            ],
            "type" : "VEC3"
        },
        {
            "bufferView" : 8,
            "componentType" : 5126,
            "count" : 24,
            "type" : "VEC3"
        },
        {
            "bufferView" : 9,
            "componentType" : 5126,
            "count" : 24,
            "type" : "VEC2"
        },
        {
            "bufferView" : 10,
            "componentType" : 5126,
            "count" : 44,
            "max" : [
                0.19502031803131104,
                2.466890811920166,
                2.8361144065856934
            ],
            "min" : [
                -2.5033035278320312,
                -1,
                -1
            ],
            "type" : "VEC3"
        },
        {
            "bufferView" : 11,
            "componentType" : 5126,
            "count" : 44,
            "type" : "VEC3"
        },
        {
            "bufferView" : 12,
            "componentType" : 5126,
            "count" : 44,
            "type" : "VEC2"
        },
        {
            "bufferView" : 13,
            "componentType" : 5123,
            "count" : 84,
            "type" : "SCALAR"
        }
    ],
    "bufferViews" : [
        {
            "buffer" : 0,
            "byteLength" : 288,
            "byteOffset" : 0
        },
        {
            "buffer" : 0,
            "byteLength" : 288,
            "byteOffset" : 288
        },
        {
            "buffer" : 0,
            "byteLength" : 192,
            "byteOffset" : 576
        },
        {
            "buffer" : 0,
            "byteLength" : 72,
            "byteOffset" : 768
        },
        {
            "buffer" : 0,
            "byteLength" : 288,
            "byteOffset" : 840
        },
        {
            "buffer" : 0,
            "byteLength" : 288,
            "byteOffset" : 1128
        },
        {
            "buffer" : 0,
            "byteLength" : 192,
            "byteOffset" : 1416
        },
        {
            "buffer" : 0,
            "byteLength" : 288,
            "byteOffset" : 1608
        },
        {
            "buffer" : 0,
            "byteLength" : 288,
            "byteOffset" : 1896
        },
        {
            "buffer" : 0,
            "byteLength" : 192,
            "byteOffset" : 2184
        },
        {
            "buffer" : 0,
            "byteLength" : 528,
            "byteOffset" : 2376
        },
        {
            "buffer" : 0,
            "byteLength" : 528,
            "byteOffset" : 2904
        },
        {
            "buffer" : 0,
            "byteLength" : 352,
            "byteOffset" : 3432
        },
        {
            "buffer" : 0,
            "byteLength" : 168,
            "byteOffset" : 3784
        }
    ],
    "buffers" : [
        {
            "byteLength" : 3952,
            "uri" : "light_test.bin"
        }
    ]
}
